<svg width="32" height="33" viewBox="0 0 32 33" fill="none" xmlns="http://www.w3.org/2000/svg">
<path d="M15.7594 1C12.8864 1 10.068 1.78538 7.60907 3.27123C5.15011 4.75707 3.14411 6.88684 1.80797 9.43025C0.471834 11.9737 -0.143604 14.8339 0.0282038 17.7018C0.200011 20.5697 1.15253 23.336 2.78276 25.7017C4.41299 28.0674 6.65891 29.9425 9.27767 31.1241C11.8964 32.3058 14.7884 32.7491 17.6409 32.4061C20.4933 32.0631 23.1978 30.9468 25.4617 29.1781C27.7257 27.4093 29.4631 25.0552 30.486 22.3705L15.7594 16.7594L15.7594 1Z" fill="#359DFD"/>
<path d="M31.8195 18.8973C32.3159 15.646 31.7826 12.3209 30.2944 9.38791C28.8062 6.45493 26.4377 4.06105 23.5207 2.54171L16.2406 16.5188L31.8195 18.8973Z" fill="#23CC67"/>
</svg>
